<mxfile host="app.diagrams.net" modified="2023-09-06T20:15:13.271Z" agent="Mozilla/5.0 (Macintosh; Intel Mac OS X 10_15_7) AppleWebKit/537.36 (KHTML, like Gecko) Chrome/114.0.0.0 Safari/537.36" version="21.7.2" etag="LtIjb0v7e1gaVRaNpgU3" type="github">
  <diagram name="Page-1" id="A-a1IZMnN2A81CJ82bNA">
    <mxGraphModel>
      <root>
        <mxCell id="0" />
        <mxCell id="1" parent="0" />
      </root>
    </mxGraphModel>
  </diagram>
</mxfile>
